/* XPM */
static char * install_icon_xpm[] = {
"16 16 86 1",
" 	c None",
".	c #002338",
"+	c #15496D",
"@	c #14487A",
"#	c #12497D",
"$	c #0D457D",
"%	c #071B2B",
"&	c #00DA00",
"*	c #688A55",
"=	c #001D3C",
"-	c #C5DD44",
";	c #E6FB3E",
">	c #E4F83E",
",	c #DBF140",
"'	c #E5F93E",
")	c #E6FA3E",
"!	c #001C3B",
"~	c #537958",
"{	c #D5EB41",
"]	c #436A5C",
"^	c #6F9155",
"/	c #D9EF40",
"(	c #DAF040",
"_	c #648756",
":	c #4E745A",
"<	c #D3EA41",
"[	c #B5CF46",
"}	c #E0F53F",
"|	c #002869",
"1	c #295361",
"2	c #DDF33F",
"3	c #DFF43F",
"4	c #1B4764",
"5	c #023168",
"6	c #E2F63E",
"7	c #B8D246",
"8	c #D6EC41",
"9	c #D1E742",
"0	c #CEE542",
"a	c #C8E044",
"b	c #648855",
"c	c #D1E842",
"d	c #D7ED41",
"e	c #B6D047",
"f	c #2F5860",
"g	c #C0D845",
"h	c #D6ED41",
"i	c #D8EE40",
"j	c #DDF241",
"k	c #5B7F57",
"l	c #6E9054",
"m	c #789952",
"n	c #759653",
"o	c #89A84F",
"p	c #8AAA4E",
"q	c #E3F73E",
"r	c #E1F63F",
"s	c #E2F73E",
"t	c #8DAB4E",
"u	c #749653",
"v	c #1A4663",
"w	c #A1BD4B",
"x	c #C8DF43",
"y	c #A7C349",
"z	c #D8ED40",
"A	c #3A625D",
"B	c #A9C449",
"C	c #194563",
"D	c #4C735A",
"E	c #4D735A",
"F	c #174364",
"G	c #A9C549",
"H	c #3C645D",
"I	c #537859",
"J	c #9AB74C",
"K	c #C1DA44",
"L	c #D7ED40",
"M	c #DEF33F",
"N	c #001022",
"O	c #698B55",
"P	c #E2F73F",
"Q	c #D3EA42",
"R	c #678A55",
"S	c #000000",
"T	c #001A39",
"U	c #000102",
".+@####$$####@+.",
"%&&&&&&**&&&&&&%",
"=&&&-;>,,')-&&&=",
"!&&~{]^/(_:<~&&!",
"!&&[}|123456[&&!",
"!&&78-9,,0a87&&!",
"!&&bcdeffedcb&&!",
"!&&&ghijjihg&&&!",
"!&&&klmnnmlk&&&!",
"!&o'npqrrstu'o&!",
"!&vwxyzddzyxwv&!",
"!&ABCD/dd/EFGH&!",
"!&&IJKLMMLKJI&&!",
"N&&OrP{&&Q3}R&&N",
"ST&&&&&&&&&&&&TS",
"USSSSSSSSSSSSSSU"};
