<?xml version="1.0" encoding="UTF-8" standalone="no"?>
<!-- Created with Inkscape (http://www.inkscape.org/) -->

<svg
   xmlns:dc="http://purl.org/dc/elements/1.1/"
   xmlns:cc="http://creativecommons.org/ns#"
   xmlns:rdf="http://www.w3.org/1999/02/22-rdf-syntax-ns#"
   xmlns:svg="http://www.w3.org/2000/svg"
   xmlns="http://www.w3.org/2000/svg"
   xmlns:sodipodi="http://sodipodi.sourceforge.net/DTD/sodipodi-0.dtd"
   xmlns:inkscape="http://www.inkscape.org/namespaces/inkscape"
   id="svg2"
   version="1.1"
   inkscape:version="0.48.4 r9939"
   width="953.875"
   height="1122.225"
   xml:space="preserve"
   sodipodi:docname="fumanoids-2012.eps"><metadata
     id="metadata8"><rdf:RDF><cc:Work
         rdf:about=""><dc:format>image/svg+xml</dc:format><dc:type
           rdf:resource="http://purl.org/dc/dcmitype/StillImage" /><dc:title></dc:title></cc:Work></rdf:RDF></metadata><defs
     id="defs6"><clipPath
       clipPathUnits="userSpaceOnUse"
       id="clipPath18"><path
         d="m 5,5 8967.85,0 0,7621.01 L 5,7626.01 5,5 z"
         clip-rule="evenodd"
         id="path20" /></clipPath></defs><sodipodi:namedview
     pagecolor="#ffffff"
     bordercolor="#666666"
     borderopacity="1"
     objecttolerance="10"
     gridtolerance="10"
     guidetolerance="10"
     inkscape:pageopacity="0"
     inkscape:pageshadow="2"
     inkscape:window-width="1920"
     inkscape:window-height="1002"
     id="namedview4"
     showgrid="false"
     inkscape:zoom="0.84118605"
     inkscape:cx="261.92521"
     inkscape:cy="636.23394"
     inkscape:window-x="0"
     inkscape:window-y="25"
     inkscape:window-maximized="1"
     inkscape:current-layer="g14" /><g
     id="g10"
     inkscape:groupmode="layer"
     inkscape:label="ink_ext_XXXXXX"
     transform="matrix(0,1.25,1.25,0,0,0)"><g
       id="g12"
       transform="matrix(0,0.1,-0.1,0,830.443,-67.342)"><g
         id="g14"><g
           id="g16"
           clip-path="url(#clipPath18)"><path
             d="m 5,5 8967.85,0 0,7621.01 L 5,7626.01 5,5 z"
             style="fill:#ffffff;fill-opacity:1;fill-rule:evenodd;stroke:none"
             id="path22"
             inkscape:connector-curvature="0" /><path
             d="m 6972.51,3546.64 c 0,-1447.01 -1173,-2620.038 -2620,-2620.038 -1447,0 -2620.1,1173.028 -2620.1,2620.038 0,1446.99 1173.1,2620.01 2620.1,2620.01 1447,0 2620,-1173.02 2620,-2620.01"
             style="fill:#231f20;fill-opacity:1;fill-rule:evenodd;stroke:none"
             id="path24"
             inkscape:connector-curvature="0" /><path
             d="m 5223.61,5517.48 c 154.7,-61.06 294.1,-154.31 423.8,-257.42 112.5,-82.45 207.8,-185.24 297.9,-291.32 121.1,-134.66 220.6,-287.49 301.7,-449.15 73.3,-165.22 146.9,-332.93 177.4,-512.16 70.6,-350.77 76.5,-721.77 -28,-1066.63 -127,-405.36 -380,-768.07 -709.3,-1035.08 -127.5,-106.08 -260.1,-207.7 -409.6,-281.02 -500.7,-256.95 -1103.9,-285.43 -1636.5,-114.45 -165.1,47.5 -315.1,132.17 -459.7,223.03 -148.8,103.26 -294.4,213.88 -414.9,350.17 -317.9,330.74 -520.9,772.68 -550.4,1231.58 -5.1,151.47 -9,304.3 11.8,454.61 52.7,446.53 247.8,874.44 548.9,1208.11 186.7,215.93 412.4,403.3 672.9,522.91 112.7,42.19 220.7,100.02 339.9,121.99 269.9,77.28 555.7,77.6 833.6,55.33 207.4,-19.02 410.6,-75.23 600.5,-160.5"
             style="fill:#231f20;fill-opacity:1;fill-rule:evenodd;stroke:none"
             id="path26"
             inkscape:connector-curvature="0" /><path
             d="m 4263.01,5617.36 c -253.1,-9.75 -509.2,-58.73 -732.4,-182.64 -61.4,-40.7 -121.4,-85.11 -172.3,-138.65 -37.5,-39.53 -53.5,-103.57 -28.1,-153.4 79.3,-150.9 163.4,-301.66 284.2,-423.81 200,-21.52 402.3,-29.49 603,-46.47 50,-1.32 105.9,-17.83 150.3,13.56 82,54.88 136.5,139.87 198.9,214.51 73.1,95.28 173.6,167.27 233.8,272.88 12.2,90.43 -56.2,160.66 -102.5,229.84 -69.4,81.7 -143,172.28 -249,205.02 -60.8,15.93 -123.9,12.55 -185.9,9.16"
             style="fill:#ffffff;fill-opacity:1;fill-rule:evenodd;stroke:none"
             id="path28"
             inkscape:connector-curvature="0" /><path
             d="m 4860.61,5107.12 c -124.2,-91.17 -212.3,-220.97 -309.2,-338.81 -42.8,-61.69 -93.2,-123.2 -104.9,-199.76 -17.6,-85.12 24.6,-165.49 56.9,-241.47 54,-146.75 102.3,-295.89 141,-447.4 161.6,-87.03 316.8,-185.99 482,-266.09 69.7,-34.52 136.9,-76.56 213.3,-94.71 86.6,42.17 156,110.33 225.7,175.23 88.9,89.85 180.1,183.36 231.4,300.78 25.8,69.48 -18.1,136.59 -34.7,202.82 -77.2,218.61 -136,454.63 -295.6,631.05 -58.4,55.63 -117.2,113.6 -189.7,150.9 -87,46.63 -176.2,89.24 -267.7,126.27 -47.8,14.47 -104.9,39.1 -148.5,1.19"
             style="fill:#ffffff;fill-opacity:1;fill-rule:evenodd;stroke:none"
             id="path30"
             inkscape:connector-curvature="0" /><path
             d="m 3216.61,5139.86 c -145,-3.22 -272.9,-86.45 -371.5,-186.61 -184.3,-197.06 -335.1,-430.74 -412.4,-690.78 -33.9,-111.36 -80.5,-223.61 -75.7,-342.06 21.3,-111.98 91.9,-204.46 142.8,-304.03 21.4,-36.74 54.2,-65.19 76.1,-101.64 16.4,-30.98 57.1,-45.43 89.3,-31.4 120.5,61.52 241.3,122.28 358.4,189.84 81.3,57.09 170,102.81 254.9,154.16 53.4,80.82 70.1,178.47 102.9,268.3 49.4,167.44 116.3,329.56 155.7,499.76 16.1,59.01 -17.5,113.3 -46,162.11 -81,124.5 -158.4,252.25 -254.2,366.41 -5.1,3.98 -15.2,11.94 -20.3,15.94"
             style="fill:#ffffff;fill-opacity:1;fill-rule:evenodd;stroke:none"
             id="path32"
             inkscape:connector-curvature="0" /><path
             d="m 5707.11,5017.44 c -43.5,-65.06 -84.2,-131.88 -127,-197.41 175.2,-270.21 274.8,-581.62 339.4,-895.07 123.3,-154.58 255.1,-302.82 381.8,-454.91 20.4,3.11 40.7,6.06 61.1,8.85 36.8,171.43 23.4,348.71 -16.4,518.2 -40.6,128.05 -76.1,258.73 -137.3,378.95 -50.1,96.78 -100.1,193.85 -154.4,288.08 -71.6,107.68 -139.1,221.43 -237.7,306.98 -29.8,28.16 -72,33.92 -109.5,46.33"
             style="fill:#ffffff;fill-opacity:1;fill-rule:evenodd;stroke:none"
             id="path34"
             inkscape:connector-curvature="0" /><path
             d="m 4620.11,3753.12 c -87.7,-16.66 -160.6,-70.94 -233.5,-119.17 -115,-73.62 -216.2,-165.68 -319,-254.78 -20.3,-20.78 -45,-45.43 -36,-77.57 21.5,-183.21 46.3,-366.12 75.5,-548.17 18.7,-87.46 28,-179.79 69.8,-259.88 46.4,-47.93 103.6,-85.57 162.5,-116.97 140.4,-57.99 281.3,-138.38 438.4,-129.67 138.8,24.04 258.2,105.76 370.3,186.47 48.6,43.63 104.1,79.8 147.2,129.48 77.6,63.45 165.8,142.51 165.3,251.22 -10.7,182.18 -37.4,364.08 -87.7,539.59 -6.1,23.62 -16.9,47.79 -39.6,59.74 -195.3,118.59 -396.3,229.54 -606.4,319.38 -34.8,10.02 -70.6,17.09 -106.8,20.33"
             style="fill:#ffffff;fill-opacity:1;fill-rule:evenodd;stroke:none"
             id="path36"
             inkscape:connector-curvature="0" /><path
             d="m 3268.41,3719.94 c -142.3,-59 -272.4,-142.05 -405.1,-219.2 -61.2,-33.34 -117.1,-75.38 -170.8,-119.2 -38.2,-30.53 -23.9,-82.58 -21.4,-124.34 19.3,-173.03 20.3,-350.04 70.5,-518.04 20.5,-62.86 81.3,-96.92 127.4,-138.96 143.7,-114.49 294.6,-219.5 448.8,-319.35 55,-33.06 107.8,-88.51 178,-74.94 94,22.71 178.8,70.78 267.1,108.42 112.7,44.53 208.5,120.8 304.1,193.38 -15.5,233.36 -69.8,461.27 -103.4,692.25 -12.9,59.16 -8,129.52 -58.5,172.3 -152.2,137.17 -322.4,254 -501.3,353.58 -41,25.79 -95.8,19.47 -135.4,-5.9"
             style="fill:#ffffff;fill-opacity:1;fill-rule:evenodd;stroke:none"
             id="path38"
             inkscape:connector-curvature="0" /><path
             d="m 6310.31,3396.3 c -9.8,-269.35 -117.9,-520.7 -228.4,-762.18 -20.9,-45.16 -50.2,-86.14 -70,-132.02 -4.6,-42.34 1.3,-84.96 4,-127.3 l -19.7,-7.97 c 9.6,-2.64 21.3,-6.03 26.6,5.31 132.7,187.93 230.7,399.03 301.5,617.46 45.4,134.11 53.7,277.19 46,417.62 -19.9,-3.53 -40,-7.25 -60,-10.92"
             style="fill:#ffffff;fill-opacity:1;fill-rule:evenodd;stroke:none"
             id="path40"
             inkscape:connector-curvature="0" /><path
             d="m 2656.91,2654.33 c -47.6,2.5 -94.1,-13.26 -141.1,-19.31 29,-71.12 49.4,-146.49 88.1,-213.17 50.5,-76.27 97.1,-155.61 157.5,-224.8 152.6,-159.03 324.9,-298.86 513.4,-413.46 109.8,-68.01 225.3,-133.5 354.4,-154.9 57.5,-9.87 123.6,11.81 155.4,62.71 -116.1,156.05 -226,318.88 -368.3,453 -166.7,80.83 -314.5,194.27 -461.2,306.36 -51.8,49 -118.7,77.01 -173.2,122.3 -39.6,29.81 -76.6,66.21 -125,81.27"
             style="fill:#ffffff;fill-opacity:1;fill-rule:evenodd;stroke:none"
             id="path42"
             inkscape:connector-curvature="0" /><path
             d="m 5527.61,2640.02 c -92.2,-25.81 -148.5,-108.56 -223,-162.25 -138.4,-125.53 -289,-238.54 -454.7,-325.41 -19.7,-9.88 -38.5,-24.63 -42.9,-47.82 -37.9,-137.77 -85.7,-274.05 -96.5,-417.71 101.7,-55.49 221.4,-88.83 337,-63.17 174.3,33.21 320.7,140.3 470.8,228.37 138.4,100.76 275.9,208.28 377,348.12 62.2,95.45 34.1,212.14 46.4,318.46 -50.9,25.39 -103.7,46.91 -159.2,59.59 -85,20.23 -166,63.3 -254.9,61.82"
             style="fill:#ffffff;fill-opacity:1;fill-rule:evenodd;stroke:none"
             id="path44"
             inkscape:connector-curvature="0" /><path
             d="m 4438.41,1619.56 c -207.9,21.8 -416.7,-13.86 -617.5,-66.11 176.9,-52.05 361.4,-77.87 545.9,-74.76 151.6,4.59 306.4,14.45 447.9,73.45 -120.1,45.73 -248.7,61.37 -376.3,67.42"
             style="fill:#ffffff;fill-opacity:1;fill-rule:evenodd;stroke:none"
             id="path46"
             inkscape:connector-curvature="0" /><path
             d="m 3171.71,2202.89 c 1.3,66.91 30.8,1643.22 90.6,2047.16 65.2,439.77 645.6,768.35 1121.1,768.35 l 2.2,0 2.1,-0.16 c 8.5,-0.65 209.2,-17.25 430.8,-133.85 206,-108.46 468.8,-326.92 550.5,-751.94 149.4,-777.05 121.3,-1861.32 121,-1872.19 l -1.5,-53.63 -2317.8,-63.06 1,59.32"
             style="fill:#ffffff;fill-opacity:1;fill-rule:evenodd;stroke:none"
             id="path48"
             inkscape:connector-curvature="0" /><path
             d="m 3030.11,2205.5 c 0.8,47.62 8.8,468.15 24.2,926.19 -211.2,97.45 -225.1,170.69 -237.7,383.48 -2.1,35.7 -4.5,76.15 -8.4,122.12 -14.1,163.94 -21.8,254.25 24.4,316.38 45.4,60.86 124.6,72.91 266.3,91.36 7.5,96.35 15.3,172.15 23.2,225.81 36.4,245.52 203.4,475.44 470.1,647.42 159.3,102.67 340.2,176.31 525.3,213.92 l 56.8,162.03 c -68.3,33.62 -113.3,99.24 -113.3,172.97 0,108.46 97.2,196.68 216.6,196.68 119.5,0 216.7,-88.22 216.7,-196.68 0,-62.5 -32.1,-119.45 -84.4,-155.88 l 105.1,-169.69 c 94.6,-19.49 228.7,-57.66 369.5,-131.81 233.6,-122.91 531.3,-370.25 623.7,-850.59 3.4,-17.6 6.8,-35.78 10.2,-55 243,-105.33 256,-134.24 264,-417.89 l 11.7,-398.81 c 1.7,-60.93 -66.2,-68.4 -111.1,-73.34 -18.8,-2.06 -41.4,-3.96 -68.4,-5.76 28.6,-516.23 17.2,-947.61 17.1,-952.06 l -5.2,-187.76 -2600.3,-70.75 3.9,207.66"
             style="fill:#ffffff;fill-opacity:1;fill-rule:evenodd;stroke:none"
             id="path50"
             inkscape:connector-curvature="0" /><path
             d="m 4352.51,1041.45 c -1383.9,0 -2505.7,1121.82 -2505.7,2505.68 0,1383.83 1121.8,2505.68 2505.7,2505.68 1383.8,0 2505.6,-1121.85 2505.6,-2505.68 0,-1383.86 -1121.8,-2505.68 -2505.6,-2505.68 z m 0,5045.71 c -1402.9,0 -2540.1,-1137.22 -2540.1,-2540.03 0,-1402.82 1137.2,-2540.04 2540.1,-2540.04 1402.8,0 2540,1137.22 2540,2540.04 0,1402.81 -1137.2,2540.03 -2540,2540.03"
             style="fill:#ffffff;fill-opacity:1;fill-rule:evenodd;stroke:none"
             id="path52"
             inkscape:connector-curvature="0" /><path
             d="m 5737.41,3285.83 c -3.6,121.78 -7.2,243.54 -10.7,365.3 -9,302.85 1.3,301.76 -258.9,413.13 -4.9,28.41 -10,56.53 -15.3,84.25 -88.1,458.2 -371.9,694.01 -594.4,811.13 -149.8,78.85 -291.7,114.99 -378.3,131.11 l -151,243.87 c 63.2,18.67 108.8,70.9 108.8,132.56 0,77.33 -71.6,140.01 -160,140.01 -88.3,0 -160,-62.68 -160,-140.01 0,-68.15 55.7,-124.84 129.3,-137.36 l -86.8,-247.17 c -186.1,-33.52 -373.7,-106.66 -537.2,-212.04 -252.8,-163 -410.7,-378.95 -444.7,-608.1 -9.5,-64.1 -18.2,-156.77 -26.2,-267.75 -309.7,-40.61 -315.1,-29.46 -287.4,-352.64 26.4,-308.16 -16.5,-360.19 247.7,-474.2 -16.6,-479.2 -24.9,-928.39 -25.6,-963.47 l -2.7,-148.32 2487.3,67.67 3.7,134.11 c 0.2,7.08 12.2,467.01 -20.3,1003.84 81.7,4.12 183,11.25 182.7,24.08"
             style="fill:#231f20;fill-opacity:1;fill-rule:evenodd;stroke:none"
             id="path54"
             inkscape:connector-curvature="0" /><path
             d="m 4383.41,4961.72 c 0,0 779.9,-60.01 929.9,-839.97 150,-779.98 120,-1859.9 120,-1859.9 l -2204.9,-60 c 0,0 30,1634.92 90,2039.9 60,404.98 615,719.97 1065,719.97"
             style="fill:#ffffff;fill-opacity:1;fill-rule:evenodd;stroke:none"
             id="path56"
             inkscape:connector-curvature="0" /><path
             d="m 5433.81,2281.59 c 3.2,149.88 17.6,1122.12 -120.5,1840.16 -150,779.96 -929.9,839.97 -929.9,839.97 -382.6,0 -841.1,-227.67 -1006.7,-544.78 156.4,327.48 626.1,564.77 1016.7,564.77 0,0 779.9,-60 929.9,-839.95 150,-779.99 120,-1859.91 120,-1859.91 l -9.5,-0.26"
             style="fill:#231f20;fill-opacity:1;fill-rule:evenodd;stroke:none"
             id="path58"
             inkscape:connector-curvature="0" /><path
             d="m 3238.41,2221.85 c 0,0 30,1634.92 90,2039.9 8,53.47 24.5,105.38 48.3,155.19 165.6,317.11 624.1,544.78 1006.7,544.78 0,0 779.9,-60.01 929.9,-839.97 138.1,-718.04 123.7,-1690.28 120.5,-1840.16 l -2195.4,-59.74 z m 1143.8,2533.01 c -177,-2.62 -379.9,-66.62 -545.5,-172.36 -162.5,-103.86 -266,-232.88 -284,-353.99 -43.7,-295.57 -72.9,-1513.49 -83.7,-1978.92 l 1748.6,47.59 c 0.2,348.69 -12.7,1259.41 -117,1801.74 -47.5,247.32 -179.1,431.58 -391.2,547.65 -149.8,82.06 -293.2,104.04 -327.2,108.29"
             style="fill:#dedede;fill-opacity:1;fill-rule:evenodd;stroke:none"
             id="path60"
             inkscape:connector-curvature="0" /><path
             d="m 1696.21,1469.58 -420.8,511.43 1247.5,77.11 61.2,-990.22 -1275,-78.798 387.1,480.478"
             style="fill:#231f20;fill-opacity:1;fill-rule:evenodd;stroke:none"
             id="path62"
             inkscape:connector-curvature="0" /><path
             d="m 1773.11,1469.99 -377.4,458.7 1071.4,66.23 53.8,-871.18 -1080.5,-66.79 332.7,413.04"
             style="fill:#ffffff;fill-opacity:1;fill-rule:evenodd;stroke:none"
             id="path64"
             inkscape:connector-curvature="0" /><path
             d="m 2489.31,1151.65 -983.3,-60.76 305.6,379.31 -355.8,432.33 983.3,60.78 50.2,-811.66"
             style="fill:#231f20;fill-opacity:1;fill-rule:evenodd;stroke:none"
             id="path66"
             inkscape:connector-curvature="0" /><path
             d="m 6433.81,2299.84 1247.5,77.13 -354.6,-559.36 443.3,-429.18 -1274.9,-78.79 -61.3,990.2"
             style="fill:#231f20;fill-opacity:1;fill-rule:evenodd;stroke:none"
             id="path68"
             inkscape:connector-curvature="0" /><path
             d="m 6497.01,2244.02 1071.4,66.23 -318.1,-501.7 381.1,-368.93 -1080.5,-66.77 -53.9,871.17"
             style="fill:#ffffff;fill-opacity:1;fill-rule:evenodd;stroke:none"
             id="path70"
             inkscape:connector-curvature="0" /><path
             d="m 6578.81,1404.45 983.3,60.76 -350,338.81 299.8,472.85 -983.3,-60.78 50.2,-811.64"
             style="fill:#231f20;fill-opacity:1;fill-rule:evenodd;stroke:none"
             id="path72"
             inkscape:connector-curvature="0" /><path
             d="m 1994.31,2260.46 4939.2,305.3 68.9,-1115.02 -4939.2,-305.32 -68.9,1115.04"
             style="fill:#231f20;fill-opacity:1;fill-rule:evenodd;stroke:none"
             id="path74"
             inkscape:connector-curvature="0" /><path
             d="m 2057.51,2204.62 4820.1,297.95 61.6,-995.99 -4820.2,-297.95 -61.5,995.99"
             style="fill:#ffffff;fill-opacity:1;fill-rule:evenodd;stroke:none"
             id="path76"
             inkscape:connector-curvature="0" /><path
             d="m 2062.81,2199.95 60.9,-986.02 4810.2,297.32 -60.9,986.02 -4810.2,-297.32 z m 51.6,-996.63 -0.4,4.99 -61.8,1000.99 5,0.31 4825.1,298.27 0.3,-5 61.9,-1000.98 -5,-0.31 -4825.1,-298.27"
             style="fill:#ffffff;fill-opacity:1;fill-rule:evenodd;stroke:none"
             id="path78"
             inkscape:connector-curvature="0" /><path
             d="m 6907.61,1534.49 -4760.6,-294.28 -57.9,936.5 4760.6,294.24 57.9,-936.46"
             style="fill:#231f20;fill-opacity:1;fill-rule:evenodd;stroke:none"
             id="path80"
             inkscape:connector-curvature="0" /><path
             d="m 4886.61,3566.99 c -201.3,0 -365.1,150.31 -365.1,335.04 0,184.74 163.8,335.03 365.1,335.03 201.2,0 365,-150.29 365,-335.03 0,-184.73 -163.8,-335.04 -365,-335.04"
             style="fill:#231f20;fill-opacity:1;fill-rule:evenodd;stroke:none"
             id="path82"
             inkscape:connector-curvature="0" /><path
             d="m 4886.61,3623.69 c -170.1,0 -308.4,124.86 -308.4,278.34 0,153.47 138.3,278.35 308.4,278.35 170,0 308.3,-124.88 308.3,-278.35 0,-153.48 -138.3,-278.34 -308.3,-278.34"
             style="fill:#ffffff;fill-opacity:1;fill-rule:evenodd;stroke:none"
             id="path84"
             inkscape:connector-curvature="0" /><path
             d="m 5166.61,3902.03 c 0,-138.07 -125.4,-250 -280,-250 -154.7,0 -280,111.93 -280,250 0,138.08 125.3,250 280,250 154.6,0 280,-111.92 280,-250"
             style="fill:#231f20;fill-opacity:1;fill-rule:evenodd;stroke:none"
             id="path86"
             inkscape:connector-curvature="0" /><path
             d="m 3773.41,3541.95 c -201.3,0 -365,150.29 -365,335.04 0,184.74 163.7,335.04 365,335.04 201.3,0 365,-150.3 365,-335.04 0,-184.75 -163.7,-335.04 -365,-335.04"
             style="fill:#231f20;fill-opacity:1;fill-rule:evenodd;stroke:none"
             id="path88"
             inkscape:connector-curvature="0" /><path
             d="m 3773.41,3598.65 c -170,0 -308.3,124.86 -308.3,278.34 0,153.47 138.3,278.34 308.3,278.34 170,0 308.4,-124.87 308.4,-278.34 0,-153.48 -138.4,-278.34 -308.4,-278.34"
             style="fill:#ffffff;fill-opacity:1;fill-rule:evenodd;stroke:none"
             id="path90"
             inkscape:connector-curvature="0" /><path
             d="m 4053.41,3876.99 c 0,-138.07 -125.3,-250 -280,-250 -154.6,0 -280,111.93 -280,250 0,138.06 125.4,250 280,250 154.7,0 280,-111.94 280,-250"
             style="fill:#231f20;fill-opacity:1;fill-rule:evenodd;stroke:none"
             id="path92"
             inkscape:connector-curvature="0" /><path
             d="m 4009.31,3989.74 -63,-60.23 -146.6,-20.98 -128.2,-64.32 -42.8,28.99 -47.4,-2.64 -20.1,-30.53 -54.4,19.89 43.3,-0.65 45.3,35.8 73.8,-20.68 136.3,59.41 130.3,7.82 73.5,48.12"
             style="fill:#ffffff;fill-opacity:1;fill-rule:evenodd;stroke:none"
             id="path94"
             inkscape:connector-curvature="0" /><path
             d="m 4640.41,3923.26 76.4,-41.96 147.1,17.52 140.5,-29.1 33.8,39.02 46.5,9.67 27.2,-24.33 47.6,33.24 -41.7,-11.76 -53,22.89 -66,-38.98 -147,22.28 -127.9,-26.01 -83.5,27.52"
             style="fill:#ffffff;fill-opacity:1;fill-rule:evenodd;stroke:none"
             id="path96"
             inkscape:connector-curvature="0" /><path
             d="m 3430.41,3551.87 207,-537.19 1440.2,97.81 240.8,579.63 -264,-525.45 -1373.5,-77.91 -250.5,463.11"
             style="fill:#231f20;fill-opacity:1;fill-rule:evenodd;stroke:none"
             id="path98"
             inkscape:connector-curvature="0" /><path
             d="m 2526.51,1545.4 -9.3,145.73 -41.3,22.28 -63.4,-4.06 10.9,-170.56 103.1,6.61 z m -18.6,258.64 -8,123.83 -101,-6.48 9.6,-149.97 62.1,3.98 37.3,28.64 z m 100.8,-271.08 c 2,-31.15 -13.5,-47.76 -46.3,-49.88 l -215.5,-13.83 -32.8,511.33 214.1,13.73 c 31.9,2.05 48.9,-12.61 50.9,-43.97 l 8.5,-131.67 c 1.1,-17.44 -3.8,-31.3 -14.7,-41.62 -1.5,-1.41 -15,-10.7 -40.4,-27.86 28.4,-14.15 43.4,-21.93 45.1,-23.36 13.1,-9.44 20.2,-23.08 21.3,-40.94 l 9.8,-151.93"
             style="fill:#ffffff;fill-opacity:1;fill-rule:evenodd;stroke:none"
             id="path100"
             inkscape:connector-curvature="0" /><path
             d="m 2861.01,1699.07 -5.1,79.07 -74.1,-4.76 5.1,-79.07 74.1,4.76 z m 85.4,-150.35 c 1.8,-27.23 -12.2,-41.79 -41.8,-43.7 l -136.2,-8.73 c -29.6,-1.9 -45.3,10.76 -47.1,37.99 l -15.9,248.31 c -1.8,27.23 12.2,41.79 41.8,43.69 l 136.2,8.73 c 29.7,1.91 45.4,-10.76 47.1,-37.98 l 7.8,-121.22 -20.4,-21.98 -127.9,-8.2 5.9,-92.46 74.1,4.75 -3.5,54.9 75.5,4.83 4.4,-68.93"
             style="fill:#ffffff;fill-opacity:1;fill-rule:evenodd;stroke:none"
             id="path102"
             inkscape:connector-curvature="0" /><path
             d="m 3266.61,1721.15 -78.3,-5.02 -4.9,75.47 -62.3,-5.32 17.1,-266.28 -78.9,-5.05 -21.2,329.99 78.9,5.05 0.8,-12.09 c 16.2,3.88 32.2,7.76 48.1,11.63 19.3,4.51 35.5,7.19 48.6,8.03 28.8,1.84 44,-10.63 45.7,-37.42 l 6.4,-98.99"
             style="fill:#ffffff;fill-opacity:1;fill-rule:evenodd;stroke:none"
             id="path104"
             inkscape:connector-curvature="0" /><path
             d="m 3455.91,1540.38 -77.5,-4.98 -32.8,511.33 77.6,4.97 32.7,-511.32"
             style="fill:#ffffff;fill-opacity:1;fill-rule:evenodd;stroke:none"
             id="path106"
             inkscape:connector-curvature="0" /><path
             d="m 3647.21,1552.65 -77.6,-4.98 -21.2,329.99 77.6,4.98 21.2,-329.99 z m -23.5,377.4 -79,-5.06 -4.9,77.11 78.9,5.06 5,-77.11"
             style="fill:#ffffff;fill-opacity:1;fill-rule:evenodd;stroke:none"
             id="path108"
             inkscape:connector-curvature="0" /><path
             d="m 3991.11,1574.7 -79.3,-5.08 -17.1,267.58 -74.1,-6.05 17.1,-266.28 -79,-5.07 -21.1,330 78.9,5.06 0.8,-12.09 c 18.2,4 36.3,7.91 54.3,11.68 22.3,4.93 40.7,7.86 55.2,8.79 28.7,1.84 43.9,-10.63 45.6,-37.43 l 18.7,-291.11"
             style="fill:#ffffff;fill-opacity:1;fill-rule:evenodd;stroke:none"
             id="path110"
             inkscape:connector-curvature="0" /><path
             d="m 5165.51,1696.93 c 2,-31.14 -13.5,-47.78 -46.6,-49.9 l -171.4,-10.99 c -32.6,-2.09 -49.9,12.43 -51.9,43.58 l -29.8,464.6 80.6,5.18 28.6,-445.66 108.6,6.97 -28.5,445.65 80.6,5.18 29.8,-464.61"
             style="fill:#ffffff;fill-opacity:1;fill-rule:evenodd;stroke:none"
             id="path112"
             inkscape:connector-curvature="0" /><path
             d="m 5514.51,1672.41 -79.3,-5.09 -17.1,267.59 -74.1,-6.07 17.1,-266.28 -78.9,-5.07 -21.2,330 78.9,5.06 0.8,-12.09 c 18.2,4.01 36.3,7.91 54.3,11.69 22.3,4.92 40.7,7.85 55.2,8.78 28.7,1.85 43.9,-10.62 45.7,-37.42 l 18.6,-291.1"
             style="fill:#ffffff;fill-opacity:1;fill-rule:evenodd;stroke:none"
             id="path114"
             inkscape:connector-curvature="0" /><path
             d="m 5703.71,1684.54 -77.6,-4.99 -21.2,330 77.6,4.98 21.2,-329.99 z m -23.5,377.41 -79,-5.07 -4.9,77.11 78.9,5.06 5,-77.1"
             style="fill:#ffffff;fill-opacity:1;fill-rule:evenodd;stroke:none"
             id="path116"
             inkscape:connector-curvature="0" /><path
             d="m 5965.61,1701.32 -87.6,-5.6 c -29.2,-1.88 -44.7,10.8 -46.4,38.02 l -14.5,225.44 -37.2,-2.39 -4.1,63.72 37.2,2.38 -5.7,89.53 78.6,5.04 5.8,-89.52 50.6,3.25 4.1,-63.72 -50.7,-3.25 13,-202.57 52.8,3.39 4.1,-63.72"
             style="fill:#ffffff;fill-opacity:1;fill-rule:evenodd;stroke:none"
             id="path118"
             inkscape:connector-curvature="0" /><path
             d="m 6199.41,1913.16 -5.1,79.07 -74.1,-4.76 5,-79.06 74.2,4.75 z m 85.4,-150.34 c 1.8,-27.24 -12.2,-41.8 -41.8,-43.7 l -136.2,-8.74 c -29.7,-1.9 -45.4,10.77 -47.1,37.99 l -15.9,248.31 c -1.8,27.23 12.2,41.79 41.8,43.7 l 136.2,8.74 c 29.7,1.89 45.4,-10.77 47.1,-37.99 l 7.8,-121.22 -20.4,-21.99 -127.9,-8.2 5.9,-92.46 74.1,4.76 -3.5,54.89 75.5,4.84 4.4,-68.93"
             style="fill:#ffffff;fill-opacity:1;fill-rule:evenodd;stroke:none"
             id="path120"
             inkscape:connector-curvature="0" /><path
             d="m 6545.91,1803.18 -13,203.22 -48.6,-3.12 c -17.5,-1.12 -25.7,-9.97 -24.7,-26.51 l 10.2,-157.81 c 1,-16.12 9.8,-23.64 26.3,-22.58 4,0.25 20.5,2.51 49.8,6.8 z m 82.7,-59.33 -78.6,-5.04 -0.7,11.44 c -52.8,-12.36 -82.4,-18.73 -88.8,-19.14 -19.8,-1.27 -35.6,3.23 -47.6,13.5 -12,10.29 -18.6,24.9 -19.8,43.84 l -13.1,204.21 c -1.7,26.79 7.2,46.06 26.8,57.81 14.2,8.79 36.2,14.13 66.1,16.06 6.7,0.42 16.4,0.83 29,1.2 12.7,0.37 21.7,0.73 27,1.07 l -11.7,181.33 78.7,5.04 32.7,-511.32"
             style="fill:#ffffff;fill-opacity:1;fill-rule:evenodd;stroke:none"
             id="path122"
             inkscape:connector-curvature="0" /><path
             d="m 4385.41,2185.8 c -31.4,-2.88 -62.1,-11.39 -90.9,-24.28 -23.4,-9.23 -44.5,-23.34 -64.1,-38.95 -17,-12.48 -31.4,-28.02 -45.1,-44.08 -18.3,-20.35 -33.3,-43.5 -45.6,-67.95 -11.1,-24.98 -22.2,-50.37 -26.8,-77.46 -10.7,-53.07 -11.6,-109.2 4.2,-161.37 19.2,-61.33 57.5,-116.19 107.3,-156.6 19.3,-16.03 39.4,-31.4 62,-42.5 75.7,-38.87 167,-43.18 247.6,-17.32 24.9,7.18 47.6,20 69.5,33.75 22.5,15.62 44.5,32.36 62.8,52.97 48,50.04 78.8,116.89 83.2,186.3 0.8,22.93 1.4,46.06 -1.8,68.79 -7.9,67.54 -37.5,132.29 -83,182.76 -28.3,32.67 -62.4,61.01 -101.8,79.12 -17,6.37 -33.4,15.12 -51.4,18.44 -40.8,11.7 -84.1,11.73 -126.1,8.38"
             style="fill:#ffffff;fill-opacity:1;fill-rule:evenodd;stroke:none"
             id="path124"
             inkscape:connector-curvature="0" /><path
             d="m 4411.71,2175.25 c 9.2,2.4 18.8,1.89 28.2,1.37 38.2,-1.47 77,-8.89 110.8,-27.62 9.2,-6.15 18.3,-12.87 26,-20.98 5.7,-5.99 8.1,-15.66 4.3,-23.2 -12,-22.83 -24.8,-45.65 -43,-64.12 -30.3,-3.26 -60.9,-4.48 -91.2,-7.03 -7.6,-0.2 -16.1,-2.72 -22.8,2.05 -12.4,8.3 -20.6,21.15 -30.1,32.46 -11,14.39 -26.2,25.29 -35.4,41.27 -1.8,13.69 8.6,24.31 15.6,34.76 10.5,12.37 21.6,26.08 37.6,31.04"
             style="fill:#ffffff;fill-opacity:1;fill-rule:evenodd;stroke:none"
             id="path126"
             inkscape:connector-curvature="0" /><path
             d="m 4327.01,2099.25 c 7.2,2.2 15.8,5.92 22.4,0.18 18.8,-13.79 32.2,-33.42 46.8,-51.25 6.5,-9.34 14.1,-18.63 15.9,-30.22 2.7,-12.89 -3.7,-25.04 -8.6,-36.54 -8.2,-22.21 -15.5,-44.77 -21.4,-67.68 -24.4,-13.16 -47.9,-28.12 -72.8,-40.25 -10.6,-5.23 -20.8,-11.58 -32.3,-14.34 -13.1,6.39 -23.6,16.7 -34.2,26.53 -13.4,13.57 -27.2,27.73 -35,45.49 -3.9,10.5 2.8,20.68 5.3,30.7 11.7,33.07 20.5,68.77 44.7,95.45 8.8,8.42 17.7,17.19 28.7,22.83 13.1,7.05 26.6,13.5 40.5,19.1"
             style="fill:#ffffff;fill-opacity:1;fill-rule:evenodd;stroke:none"
             id="path128"
             inkscape:connector-curvature="0" /><path
             d="m 4595.11,2101.99 3.1,2.4 c 21.9,-0.49 41.2,-13.09 56.1,-28.22 27.9,-29.83 50.8,-65.18 62.4,-104.52 5.2,-16.85 12.2,-33.82 11.5,-51.75 -3.2,-16.94 -13.9,-30.92 -21.6,-45.98 -3.2,-5.57 -8.2,-9.86 -11.5,-15.39 -2.5,-4.69 -8.7,-6.86 -13.5,-4.75 -18.3,9.32 -36.5,18.51 -54.2,28.71 -12.3,8.66 -25.8,15.57 -38.6,23.34 -8.1,12.21 -10.6,27 -15.6,40.59 -7.4,25.31 -17.6,49.84 -23.5,75.59 -2.5,8.94 2.6,17.14 6.9,24.55 12.3,18.82 24,38.14 38.5,55.43"
             style="fill:#ffffff;fill-opacity:1;fill-rule:evenodd;stroke:none"
             id="path130"
             inkscape:connector-curvature="0" /><path
             d="m 4204.81,2078.86 c 4.5,4.26 10.9,5.14 16.6,7.01 6.6,-9.84 12.7,-19.96 19.2,-29.86 -26.5,-40.88 -41.6,-87.99 -51.3,-135.41 -18.7,-23.4 -38.6,-45.81 -57.8,-68.83 -3.1,0.47 -6.2,0.93 -9.2,1.35 -5.6,25.92 -3.6,52.75 2.4,78.4 6.2,19.35 11.5,39.14 20.8,57.32 7.6,14.63 15.1,29.32 23.4,43.58 10.8,16.29 21,33.49 35.9,46.44"
             style="fill:#ffffff;fill-opacity:1;fill-rule:evenodd;stroke:none"
             id="path132"
             inkscape:connector-curvature="0" /><path
             d="m 4369.71,1891.52 c 5.2,1.5 10.7,2.6 16.1,3.08 13.3,-2.52 24.3,-10.74 35.4,-18.02 17.4,-11.16 32.7,-25.06 48.2,-38.56 3.1,-3.14 6.8,-6.85 5.5,-11.74 -3.3,-27.71 -7,-55.37 -11.5,-82.91 -2.8,-13.24 -4.2,-27.2 -10.5,-39.31 -7,-7.27 -15.7,-12.95 -24.6,-17.72 -21.3,-8.75 -42.6,-20.92 -66.3,-19.61 -21,3.65 -39.1,16 -56,28.21 -7.4,6.6 -15.8,12.07 -22.3,19.61 -11.8,9.58 -25.1,21.54 -25,37.98 1.6,27.56 5.6,55.08 13.2,81.64 1,3.58 2.6,7.23 6,9.03 29.6,17.95 60,34.72 91.8,48.32"
             style="fill:#ffffff;fill-opacity:1;fill-rule:evenodd;stroke:none"
             id="path134"
             inkscape:connector-curvature="0" /><path
             d="m 4569.81,1890.46 c 6.2,3.91 14.5,2.95 20.5,-0.88 21.5,-8.92 41.2,-21.5 61.3,-33.16 9.3,-5.06 17.7,-11.41 25.9,-18.03 5.7,-4.63 3.5,-12.5 3.2,-18.81 -3,-26.19 -3.1,-52.96 -10.7,-78.37 -3.1,-9.5 -12.3,-14.67 -19.3,-21.01 -21.7,-17.33 -44.5,-33.23 -67.9,-48.33 -8.3,-5 -16.3,-13.4 -26.9,-11.35 -14.2,3.46 -27,10.72 -40.4,16.41 -17.1,6.76 -31.5,18.28 -46,29.26 2.3,35.31 10.6,69.78 15.6,104.72 2,8.95 1.3,19.59 8.9,26.08 23,20.74 48.8,38.41 75.8,53.47"
             style="fill:#ffffff;fill-opacity:1;fill-rule:evenodd;stroke:none"
             id="path136"
             inkscape:connector-curvature="0" /><path
             d="m 4121.01,1842.29 c 3.1,-0.56 6.1,-1.1 9.1,-1.67 1.5,-40.74 17.9,-78.77 34.6,-115.29 3.2,-6.86 7.6,-13.04 10.6,-19.98 0.7,-6.4 -0.2,-12.86 -0.6,-19.26 l 2.9,-1.21 c -1.4,-0.41 -3.2,-0.92 -4,0.8 -20.1,28.44 -34.9,60.37 -45.6,93.42 -6.9,20.29 -8.1,41.93 -7,63.19"
             style="fill:#ffffff;fill-opacity:1;fill-rule:evenodd;stroke:none"
             id="path138"
             inkscape:connector-curvature="0" /><path
             d="m 4663.91,1716.09 c 6,4.49 11.6,10 18.9,12.28 7.2,0.37 14.3,-2.01 21.4,-2.93 -4.4,-10.76 -7.5,-22.14 -13.4,-32.24 -7.6,-11.55 -14.7,-23.54 -23.8,-34.01 -23.1,-24.06 -49.1,-45.21 -77.7,-62.56 -16.6,-10.27 -34,-20.17 -53.6,-23.41 -8.7,-1.51 -18.7,1.77 -23.5,9.49 17.6,23.59 34.2,48.22 55.7,68.51 25.3,12.23 47.6,29.4 69.8,46.35 7.9,7.42 18,11.66 26.2,18.52"
             style="fill:#ffffff;fill-opacity:1;fill-rule:evenodd;stroke:none"
             id="path140"
             inkscape:connector-curvature="0" /><path
             d="m 4210.01,1716.87 c 12.8,3.05 25.1,9.55 38.5,9.34 14,-3.91 22.5,-16.42 33.8,-24.54 20.9,-19 43.7,-36.09 68.8,-49.23 3,-1.51 5.8,-3.73 6.5,-7.23 5.7,-20.84 12.9,-41.47 14.5,-63.2 -15.3,-8.4 -33.5,-13.44 -50.9,-9.55 -26.4,5.01 -48.5,21.23 -71.3,34.55 -20.9,15.23 -41.7,31.5 -57,52.65 -9.4,14.44 -5.1,32.09 -7,48.19 7.7,3.82 15.7,7.09 24.1,9.02"
             style="fill:#ffffff;fill-opacity:1;fill-rule:evenodd;stroke:none"
             id="path142"
             inkscape:connector-curvature="0" /><path
             d="m 4356.41,1561.63 c 18.2,6.92 37.6,9.28 56.9,10.2 31.5,3.3 63.1,-2.09 93.4,-10 -26.7,-7.87 -54.6,-11.78 -82.5,-11.31 -23,0.69 -46.4,2.19 -67.8,11.11"
             style="fill:#ffffff;fill-opacity:1;fill-rule:evenodd;stroke:none"
             id="path144"
             inkscape:connector-curvature="0" /><path
             d="m 4356.41,1561.63 c 21.4,-8.92 44.8,-10.42 67.8,-11.11 27.9,-0.47 55.8,3.44 82.5,11.31 -30.3,7.91 -61.9,13.3 -93.4,10 -19.3,-0.92 -38.7,-3.28 -56.9,-10.2 z m -146.4,155.24 c -8.4,-1.93 -16.4,-5.2 -24.1,-9.02 1.9,-16.1 -2.4,-33.75 7,-48.19 15.3,-21.15 36.1,-37.42 57,-52.65 22.8,-13.32 44.9,-29.54 71.3,-34.55 17.4,-3.89 35.6,1.15 50.9,9.55 -1.6,21.73 -8.8,42.36 -14.5,63.2 -0.7,3.5 -3.5,5.72 -6.5,7.23 -25.1,13.14 -47.9,30.23 -68.8,49.23 -11.3,8.12 -19.8,20.63 -33.8,24.54 -13.4,0.21 -25.7,-6.29 -38.5,-9.34 z m 453.9,-0.78 c -8.2,-6.86 -18.3,-11.1 -26.2,-18.52 -22.2,-16.95 -44.5,-34.12 -69.8,-46.35 -21.5,-20.29 -38.1,-44.92 -55.7,-68.51 4.8,-7.72 14.8,-11 23.5,-9.49 19.6,3.24 37,13.14 53.6,23.41 28.6,17.35 54.6,38.5 77.7,62.56 9.1,10.47 16.2,22.46 23.8,34.01 5.9,10.1 9,21.48 13.4,32.24 -7.1,0.92 -14.2,3.3 -21.4,2.93 -7.3,-2.28 -12.9,-7.79 -18.9,-12.28 z m -542.9,126.2 c -1.1,-21.26 0.1,-42.9 7,-63.19 10.7,-33.05 25.5,-64.98 45.6,-93.42 0.8,-1.72 2.6,-1.21 4,-0.8 l -2.9,1.21 c 0.4,6.4 1.3,12.86 0.6,19.26 -3,6.94 -7.4,13.12 -10.6,19.98 -16.7,36.52 -33.1,74.55 -34.6,115.29 -3,0.57 -6,1.11 -9.1,1.67 z m 448.8,48.17 c -27,-15.06 -52.8,-32.73 -75.8,-53.47 -7.6,-6.49 -6.9,-17.13 -8.9,-26.08 -5,-34.94 -13.3,-69.41 -15.6,-104.72 14.5,-10.98 28.9,-22.5 46,-29.26 13.4,-5.69 26.2,-12.95 40.4,-16.41 10.6,-2.05 18.6,6.35 26.9,11.35 23.4,15.1 46.2,31 67.9,48.33 7,6.34 16.2,11.51 19.3,21.01 7.6,25.41 7.7,52.18 10.7,78.37 0.3,6.31 2.5,14.18 -3.2,18.81 -8.2,6.62 -16.6,12.97 -25.9,18.03 -20.1,11.66 -39.8,24.24 -61.3,33.16 -6,3.83 -14.3,4.79 -20.5,0.88 z m -200.1,1.06 c -31.8,-13.6 -62.2,-30.37 -91.8,-48.32 -3.4,-1.8 -5,-5.45 -6,-9.03 -7.6,-26.56 -11.6,-54.08 -13.2,-81.64 -0.1,-16.44 13.2,-28.4 25,-37.98 6.5,-7.54 14.9,-13.01 22.3,-19.61 16.9,-12.21 35,-24.56 56,-28.21 23.7,-1.31 45,10.86 66.3,19.61 8.9,4.77 17.6,10.45 24.6,17.72 6.3,12.11 7.7,26.07 10.5,39.31 4.5,27.54 8.2,55.2 11.5,82.91 1.3,4.89 -2.4,8.6 -5.5,11.74 -15.5,13.5 -30.8,27.4 -48.2,38.56 -11.1,7.28 -22.1,15.5 -35.4,18.02 -5.4,-0.48 -10.9,-1.58 -16.1,-3.08 z m -164.9,187.34 c -14.9,-12.95 -25.1,-30.15 -35.9,-46.44 -8.3,-14.26 -15.8,-28.95 -23.4,-43.58 -9.3,-18.18 -14.6,-37.97 -20.8,-57.32 -6,-25.65 -8,-52.48 -2.4,-78.4 3,-0.42 6.1,-0.88 9.2,-1.35 19.2,23.02 39.1,45.43 57.8,68.83 9.7,47.42 24.8,94.53 51.3,135.41 -6.5,9.9 -12.6,20.02 -19.2,29.86 -5.7,-1.87 -12.1,-2.75 -16.6,-7.01 z m 390.3,23.13 c -14.5,-17.29 -26.2,-36.61 -38.5,-55.43 -4.3,-7.41 -9.4,-15.61 -6.9,-24.55 5.9,-25.75 16.1,-50.28 23.5,-75.59 5,-13.59 7.5,-28.38 15.6,-40.59 12.8,-7.77 26.3,-14.68 38.6,-23.34 17.7,-10.2 35.9,-19.39 54.2,-28.71 4.8,-2.11 11,0.06 13.5,4.75 3.3,5.53 8.3,9.82 11.5,15.39 7.7,15.06 18.4,29.04 21.6,45.98 0.7,17.93 -6.3,34.9 -11.5,51.75 -11.6,39.34 -34.5,74.69 -62.4,104.52 -14.9,15.13 -34.2,27.73 -56.1,28.22 l -3.1,-2.4 z m -268.1,-2.74 c -13.9,-5.6 -27.4,-12.05 -40.5,-19.1 -11,-5.64 -19.9,-14.41 -28.7,-22.83 -24.2,-26.68 -33,-62.38 -44.7,-95.45 -2.5,-10.02 -9.2,-20.2 -5.3,-30.7 7.8,-17.76 21.6,-31.92 35,-45.49 10.6,-9.83 21.1,-20.14 34.2,-26.53 11.5,2.76 21.7,9.11 32.3,14.34 24.9,12.13 48.4,27.09 72.8,40.25 5.9,22.91 13.2,45.47 21.4,67.68 4.9,11.5 11.3,23.65 8.6,36.54 -1.8,11.59 -9.4,20.88 -15.9,30.22 -14.6,17.83 -28,37.46 -46.8,51.25 -6.6,5.74 -15.2,2.02 -22.4,-0.18 z m 84.7,76 c -16,-4.96 -27.1,-18.67 -37.6,-31.04 -7,-10.45 -17.4,-21.07 -15.6,-34.76 9.2,-15.98 24.4,-26.88 35.4,-41.27 9.5,-11.31 17.7,-24.16 30.1,-32.46 6.7,-4.77 15.2,-2.25 22.8,-2.05 30.3,2.55 60.9,3.77 91.2,7.03 18.2,18.47 31,41.29 43,64.12 3.8,7.54 1.4,17.21 -4.3,23.2 -7.7,8.11 -16.8,14.83 -26,20.98 -33.8,18.73 -72.6,26.15 -110.8,27.62 -9.4,0.52 -19,1.03 -28.2,-1.37 z m -26.3,10.55 c 42,3.35 85.3,3.32 126.1,-8.38 18,-3.32 34.4,-12.07 51.4,-18.44 39.4,-18.11 73.5,-46.45 101.8,-79.12 45.5,-50.47 75.1,-115.22 83,-182.76 3.2,-22.73 2.6,-45.86 1.8,-68.79 -4.4,-69.41 -35.2,-136.26 -83.2,-186.3 -18.3,-20.61 -40.3,-37.35 -62.8,-52.97 -21.9,-13.75 -44.6,-26.57 -69.5,-33.75 -80.6,-25.86 -171.9,-21.55 -247.6,17.32 -22.6,11.1 -42.7,26.47 -62,42.5 -49.8,40.41 -88.1,95.27 -107.3,156.6 -15.8,52.17 -14.9,108.3 -4.2,161.37 4.6,27.09 15.7,52.48 26.8,77.46 12.3,24.45 27.3,47.6 45.6,67.95 13.7,16.06 28.1,31.6 45.1,44.08 19.6,15.61 40.7,29.72 64.1,38.95 28.8,12.89 59.5,21.4 90.9,24.28"
             style="fill:#231f20;fill-opacity:1;fill-rule:evenodd;stroke:none"
             id="path146"
             inkscape:connector-curvature="0" /><path
             d="m 2993.91,6424.51 -127.2,-63.97 73.2,-145.42 108.6,54.67 32.1,-63.78 -108.7,-54.65 109.3,-217.34 -73.5,-36.96 -247.2,491.54 200.8,100.93 32.6,-65.02"
             style="fill:#231f20;fill-opacity:1;fill-rule:evenodd;stroke:none"
             id="path148"
             inkscape:connector-curvature="0" /><path
             d="m 3512.01,6166.87 c 11.4,-31.5 1.3,-53.01 -30.5,-64.53 l -164.2,-59.6 c -31.3,-11.36 -52.6,-1.28 -64.1,30.22 l -170.5,469.94 77.3,28.07 163.6,-450.77 104.1,37.77 -163.6,450.77 77.3,28.07 170.6,-469.94"
             style="fill:#231f20;fill-opacity:1;fill-rule:evenodd;stroke:none"
             id="path150"
             inkscape:connector-curvature="0" /><path
             d="m 3988.21,6222.79 -78.2,-15.81 -57,282.21 -73.8,-16.34 56.7,-280.84 -78.6,-15.88 -57,282.22 -73.8,-16.34 56.8,-280.86 -79,-15.94 -70.3,348.05 78.9,15.93 2.6,-12.74 c 17.8,6.69 35.4,13.37 53,20.03 21.6,7.95 39.7,13.41 54.4,16.39 18.2,3.66 30.9,0.85 38.3,-8.41 18.7,6.88 37.4,13.87 56,21 24.7,9.28 43.8,15.3 57.3,18.04 28.8,5.8 46,-5.42 51.7,-33.68 l 62,-307.03"
             style="fill:#231f20;fill-opacity:1;fill-rule:evenodd;stroke:none"
             id="path152"
             inkscape:connector-curvature="0" /><path
             d="m 4213.11,6300.28 -5.8,95.09 -76.9,-4.71 6,-97.9 76.7,7.52 z m 80.1,-59.2 -76.9,-4.72 -0.7,12.29 c -18.1,-3.93 -36.2,-7.85 -54.2,-11.78 -23.7,-4.97 -41.7,-7.83 -54.1,-8.59 -29.3,-1.8 -44.8,11.69 -46.5,40.46 l -7.9,127.74 c -1.8,29.24 12.4,44.78 42.6,46.64 l 108.4,6.64 -4.9,81.41 -76.9,-4.71 3.1,-50.53 -72.6,-4.45 -4.1,66.32 c -1.8,29.24 12.4,44.79 42.6,46.64 l 135.8,8.32 c 29.7,1.82 45.4,-11.89 47.2,-41.13 l 19.1,-310.55"
             style="fill:#231f20;fill-opacity:1;fill-rule:evenodd;stroke:none"
             id="path154"
             inkscape:connector-curvature="0" /><path
             d="m 4609.51,6230.21 -80.8,3.94 14.1,287.6 -75.6,2.29 -14,-286.19 -80.4,3.94 17.4,354.66 80.4,-3.95 -0.7,-12.98 c 18.9,2.11 37.7,4.14 56.3,6.04 23.1,2.62 42.1,3.57 56.8,2.85 29.3,-1.42 43.2,-16.54 41.8,-45.33 l -15.3,-312.87"
             style="fill:#231f20;fill-opacity:1;fill-rule:evenodd;stroke:none"
             id="path156"
             inkscape:connector-curvature="0" /><path
             d="m 4852.61,6262.83 35.5,218.26 -75.3,12.24 -35.5,-218.26 75.3,-12.24 z m 74.1,-35.2 c -4.7,-28.92 -21.7,-40.99 -51.1,-36.21 l -142.3,23.14 c -29.8,4.86 -42.4,21.74 -37.7,50.66 l 42.9,263.73 c 4.7,28.91 22,40.95 51.8,36.08 l 142.3,-23.14 c 29.4,-4.78 41.7,-21.62 37,-50.54 l -42.9,-263.72"
             style="fill:#231f20;fill-opacity:1;fill-rule:evenodd;stroke:none"
             id="path158"
             inkscape:connector-curvature="0" /><path
             d="m 5179.51,6537.65 -78,19.79 20.4,80.42 78,-19.78 -20.4,-80.43 z m -100.4,-393.44 -76.7,19.44 87.2,344.2 76.7,-19.44 -87.2,-344.2"
             style="fill:#231f20;fill-opacity:1;fill-rule:evenodd;stroke:none"
             id="path160"
             inkscape:connector-curvature="0" /><path
             d="m 5330.41,6137.43 72.1,206.47 -46.9,16.33 c -16.8,5.86 -28.1,0.39 -34,-16.44 l -55.9,-160.33 c -5.7,-16.38 -0.6,-27.34 15.3,-32.9 3.8,-1.31 20.3,-5.69 49.4,-13.13 z m 52.9,-91.79 -75.7,26.39 4.1,11.62 c -54.5,8.82 -84.9,14.33 -91.1,16.49 -19,6.63 -32,17.43 -38.9,32.39 -7,14.95 -7.1,32.06 -0.4,51.31 l 72.4,207.48 c 9.5,27.22 25.8,42.75 49,46.57 16.9,3.04 39.8,-0.47 68.6,-10.5 6.4,-2.24 15.6,-5.71 27.6,-10.39 12,-4.69 20.6,-7.92 25.7,-9.7 l 64.2,184.24 75.7,-26.4 -181.2,-519.5"
             style="fill:#231f20;fill-opacity:1;fill-rule:evenodd;stroke:none"
             id="path162"
             inkscape:connector-curvature="0" /><path
             d="m 5677.81,5957.85 c -12.7,-26.43 -32.4,-33.21 -59.3,-20.35 l -122,58.47 c -26.9,12.87 -34,32.5 -21.3,58.93 l 33,68.81 69.4,-33.27 -25.8,-53.9 63.7,-30.53 24.3,50.72 -79.8,118.95 c -10.5,15.65 -12.2,30.78 -5.2,45.36 l 35.8,74.82 c 12.7,26.43 32.6,33.11 59.9,20.04 l 120.8,-57.86 c 26.9,-12.86 33.9,-32.5 21.3,-58.92 l -30.8,-64.37 -68.8,32.96 23.7,49.46 -63.8,30.53 -22.2,-46.29 79.9,-118.15 c 10.7,-15.55 12.5,-30.93 5.2,-46.16 l -38,-79.25"
             style="fill:#231f20;fill-opacity:1;fill-rule:evenodd;stroke:none"
             id="path164"
             inkscape:connector-curvature="0" /><path
             d="m 5099.91,5989.7 -391.1,-313.03 307.7,-25.58 -472.7,-360.41 701.6,359.76 -284.5,94.24 139,245.02"
             style="fill:#ffffff;fill-opacity:1;fill-rule:evenodd;stroke:none"
             id="path166"
             inkscape:connector-curvature="0" /><path
             d="m 3382.31,5860.61 455.6,-209.5 -292.7,-99.3 546.4,-235.74 -768.6,179.74 253.6,160.38 -194.3,204.42"
             style="fill:#ffffff;fill-opacity:1;fill-rule:evenodd;stroke:none"
             id="path168"
             inkscape:connector-curvature="0" /><path
             d="m 3905.71,6046.75 213.1,-321.31 -136.5,4.55 167.8,-212.67 -267.4,225.53 133.6,32.11 -110.6,271.79"
             style="fill:#ffffff;fill-opacity:1;fill-rule:evenodd;stroke:none"
             id="path170"
             inkscape:connector-curvature="0" /><path
             d="m 4608.91,6064.02 -77,-367.66 -117.1,99.25 -27.3,-262.18 -50.4,341.08 145,-72.41 126.8,261.92"
             style="fill:#ffffff;fill-opacity:1;fill-rule:evenodd;stroke:none"
             id="path172"
             inkscape:connector-curvature="0" /></g></g></g></g></svg>